<?xml version="1.0" encoding="UTF-8"?>
<svg width="80px" height="80px" viewBox="0 0 80 80" version="1.1" xmlns="http://www.w3.org/2000/svg" xmlns:xlink="http://www.w3.org/1999/xlink">
    <!-- Generator: Sketch 42 (36781) - http://www.bohemiancoding.com/sketch -->
    <title>Star</title>
    <desc>Created with Sketch.</desc>
    <defs></defs>
    <g id="Page-1" stroke="none" stroke-width="1" fill="none" fill-rule="evenodd">
        <g id="Artboard" transform="translate(-3.000000, -3.000000)" stroke="#000000" fill="#F90000">
            <polygon id="Star" points="42.7808758 73 34.4644082 82.125904 30.5787765 70.4063637 19.2694657 75.3606798 20.4865311 63.0739182 8.13985966 63 14.2491803 52.2705098 3 47.1811385 12.945219 39.8641461 4.73861516 30.6393202 16.8001137 28 13.0550828 16.2347757 25.1473182 18.7294902 26.5114101 6.45818169 36.5435251 13.655572 42.7808758 3 49.0182265 13.655572 59.0503415 6.45818169 60.4144334 18.7294902 72.5066688 16.2347757 68.7616379 28 80.8231365 30.6393202 72.6165327 39.8641461 82.5617516 47.1811385 71.3125713 52.2705098 77.421892 63 65.0752206 63.0739182 66.2922859 75.3606798 54.9829751 70.4063637 51.0973434 82.125904"></polygon>
        </g>
    </g>
</svg>